<svg xmlns="http://www.w3.org/2000/svg" viewBox="0 0 512 512" width="512" height="512">
  <rect width="512" height="512" rx="80" fill="#0b172a"/>
  <path d="M256 72 L408 136 L408 268 C408 352 344 420 256 448 C168 420 104 352 104 268 L104 136 Z" fill="#0b74ff" opacity="0.2"/>
  <path d="M256 88 L392 148 L392 268 C392 344 332 408 256 432 C180 408 120 344 120 268 L120 148 Z" fill="none" stroke="#0b74ff" stroke-width="10"/>
  <rect x="192" y="212" width="128" height="16" rx="8" fill="#ffffff"/>
  <rect x="192" y="252" width="96" height="16" rx="8" fill="#ffffff" opacity="0.7"/>
  <rect x="192" y="292" width="112" height="16" rx="8" fill="#ffffff" opacity="0.5"/>
  <circle cx="168" cy="220" r="10" fill="#0b74ff"/>
  <circle cx="168" cy="260" r="10" fill="#0b74ff"/>
  <circle cx="168" cy="300" r="10" fill="#0b74ff"/>
</svg>
